<svg xmlns="http://www.w3.org/2000/svg" viewBox="0 0 242.38666 122.8" height="122.8" width="252.387">
    <path d="M221.256 99.115c3.701-1.432 7.399-2.851 11.33-4.368-12.575 25.423-51.655 36.43-81.747 20.893-13.646-7.043-25.67-18.442-36.92-29.711-11.223-11.237-20.394-24.532-30.43-36.947C58.34 17.882 37.32 10.932 0 21.422 6.87 6.614 29.326-2.411 50.777.564c25.848 3.58 43.315 19.765 59.665 38.219 17.019 19.21 33.34 39.342 52.355 56.402 18.686 16.765 41.642 16.385 58.986 3.407l-.527.523"
          fill="#fff" fill-rule="evenodd"/>
    <path d="M152.544 78.387c9.53-8.96 17.557-16.809 25.947-24.213 24.376-21.503 47.018-18.23 64.884 10.89-5.178-43.298-39.028-59.47-72.792-36.669C160 35.54 150.684 44.548 140.34 53.075c-6.124-4.216-12.25-8.432-18.382-12.65-.534.715-1.072 1.435-1.61 2.152 1.634 1.874 3.276 3.737 4.907 5.612 8.795 10.125 17.807 20.467 27.288 30.198M104.383 83.02c-33.85 30.204-59.906-15.104-59.906-15.104 13.207 57.003 48.07 51.514 71.758 39.362 6.345 3.08 15.474 6.312 21.508 9.234.533-.665 1.064-1.329 1.596-1.991-10.587-7.117-20.053-16.198-28.93-25.09a154.42 154.42 0 0 1-6.026-6.412"
          fill="#3a72c1"/>
</svg>