<svg width="137" height="18" viewBox="0 0 137 18" fill="none" xmlns="http://www.w3.org/2000/svg">
    <path d="M43.7863 16.0613C42.559 16.0613 41.1326 15.8692 39.9385 15.5811C39.5072 15.4851 39.4077 15.3571 39.4077 15.069V2.26427C39.4077 2.0722 39.5736 1.88013 39.8058 1.88013H41.5638C41.7629 1.88013 41.9619 2.04019 41.9619 2.26427V5.52946C42.6585 5.43343 43.3219 5.40142 43.7863 5.40142C46.8712 5.40142 48.3308 7.16206 48.3308 10.0111V11.4196C48.3308 14.3327 46.8381 16.0613 43.7863 16.0613ZM45.8098 10.0431C45.8098 8.53856 45.4117 7.41816 43.7531 7.41816C43.2887 7.41816 42.4595 7.48218 41.9287 7.5462V13.9806C42.2936 14.0446 43.0565 14.1086 43.7531 14.1086C45.3785 14.1086 45.8098 12.9882 45.8098 11.4836V10.0431Z" fill="white"/>
    <path d="M57.4866 15.5813C56.2924 15.8694 54.866 16.0615 53.6387 16.0615C50.5538 16.0615 49.0942 14.3008 49.0942 11.4518V10.0433C49.0942 7.16223 50.5869 5.43359 53.6387 5.43359C54.866 5.43359 56.2924 5.62566 57.4866 5.91377C57.9178 6.0098 58.0173 6.13785 58.0173 6.42596V15.1331C58.0173 15.3572 57.951 15.4853 57.4866 15.5813ZM55.4963 7.51436C55.1314 7.45033 54.3353 7.38631 53.6719 7.38631C52.0465 7.38631 51.6153 8.50672 51.6153 10.0113V11.4198C51.6153 12.9243 52.0133 14.0447 53.6719 14.0447C54.3685 14.0447 55.1314 13.9807 55.4963 13.9167V7.51436Z" fill="white"/>
    <path d="M65.9769 15.837C65.5456 15.933 64.6832 16.0611 63.5222 16.0611C61.0343 16.0611 59.1768 14.5885 59.1768 11.5794V9.85078C59.1768 6.84168 61.0343 5.36914 63.5222 5.36914C64.6832 5.36914 65.5456 5.49719 65.9769 5.62523C66.3086 5.68926 66.3749 5.81731 66.3749 6.10541V7.28984C66.3749 7.48191 66.2091 7.57795 66.0432 7.57795C66.01 7.57795 66.01 7.57795 65.9769 7.57795C65.2139 7.48191 64.7495 7.4499 63.5222 7.4499C62.6266 7.4499 61.6978 7.96209 61.6978 9.85078V11.5794C61.6978 13.5001 62.6266 13.9803 63.5222 13.9803C64.7495 13.9803 65.2139 13.9483 65.9769 13.8522C66.01 13.8522 66.01 13.8522 66.0432 13.8522C66.2422 13.8522 66.3749 13.9483 66.3749 14.1404V15.3568C66.3749 15.6449 66.2754 15.773 65.9769 15.837Z" fill="white"/>
    <path d="M75.8966 15.9335H73.5746C73.3756 15.9335 73.1434 15.7414 73.0107 15.5814L70.0253 11.3878V15.5814C70.0253 15.7734 69.8594 15.9655 69.6272 15.9655H67.8692C67.6701 15.9655 67.5043 15.7734 67.5043 15.5814V2.29649C67.5043 2.10442 67.6701 1.91235 67.8692 1.91235H69.6272C69.8263 1.91235 70.0253 2.07241 70.0253 2.29649V9.97931L73.2761 5.78577C73.4088 5.62571 73.6078 5.56169 73.7073 5.56169H75.8303C76.0293 5.56169 76.1288 5.62571 76.1288 5.75376C76.1288 5.81778 76.0956 5.8498 76.0625 5.94583L72.2146 10.4915L76.0956 15.5814C76.1288 15.6454 76.162 15.6774 76.162 15.7414C76.162 15.8054 76.0625 15.9335 75.8966 15.9335Z" fill="white"/>
    <path d="M85.4494 11.5798H79.2463V11.6439C79.2463 12.7003 79.7107 13.9807 81.5352 13.9807C82.9284 13.9807 84.2552 13.8847 85.0513 13.7887C85.0845 13.7887 85.0845 13.7887 85.1177 13.7887C85.3167 13.7887 85.4494 13.8847 85.4494 14.0768V15.2932C85.4494 15.5813 85.383 15.7094 85.0513 15.7734C83.824 15.9975 83.061 16.0935 81.3361 16.0935C79.4122 16.0935 76.7253 15.1011 76.7253 11.4838V10.1073C76.7253 7.22625 78.3839 5.43359 81.303 5.43359C84.2552 5.43359 85.8474 7.3543 85.8474 10.1073V11.1317C85.8142 11.4198 85.7147 11.5798 85.4494 11.5798ZM83.2932 9.78719C83.2932 8.34666 82.464 7.51436 81.303 7.51436C80.1088 7.51436 79.2463 8.31465 79.2463 9.78719V9.85121H83.2932V9.78719Z" fill="white"/>
    <path d="M95.3681 15.9334H93.5768C93.3778 15.9334 93.212 15.7414 93.212 15.5493V9.17897C93.212 8.28264 93.0129 7.45033 91.9183 7.45033H90.7241C89.6295 7.45033 89.4304 8.28264 89.4304 9.17897V15.5493C89.4304 15.7414 89.2646 15.9334 89.0656 15.9334H87.2743C87.0753 15.9334 86.9094 15.7414 86.9094 15.5493V9.17897C86.9094 6.93814 88.2363 5.43359 90.7241 5.43359H91.9183C94.4061 5.43359 95.733 6.97016 95.733 9.17897V15.5493C95.733 15.7414 95.6003 15.9334 95.3681 15.9334Z" fill="white"/>
    <path d="M105.186 15.5814C103.992 15.8695 102.566 16.0615 101.338 16.0615C98.2535 16.0615 96.7939 14.3009 96.7939 11.4518V10.0433C96.7939 7.16228 98.2867 5.43364 101.338 5.43364C101.803 5.43364 102.466 5.46565 103.163 5.56169V2.29649C103.163 2.10442 103.329 1.91235 103.561 1.91235H105.319C105.518 1.91235 105.717 2.07241 105.717 2.29649V15.1012C105.717 15.3573 105.617 15.4853 105.186 15.5814ZM103.196 7.51441C102.665 7.45038 101.836 7.38636 101.372 7.38636C99.7462 7.38636 99.315 8.50677 99.315 10.0113V11.4198C99.315 12.9244 99.713 14.0448 101.372 14.0448C102.068 14.0448 102.831 13.9808 103.196 13.9167V7.51441Z" fill="white"/>
    <path d="M109.499 15.9335H107.708C107.509 15.9335 107.31 15.7414 107.31 15.5493V2.29649C107.31 2.10442 107.476 1.91235 107.708 1.91235H109.499C109.698 1.91235 109.864 2.07241 109.864 2.29649V15.5493C109.831 15.7414 109.698 15.9335 109.499 15.9335Z" fill="white"/>
    <path d="M119.881 11.5798H113.678V11.6439C113.678 12.7003 114.142 13.9807 115.966 13.9807C117.36 13.9807 118.686 13.8847 119.483 13.7887C119.516 13.7887 119.516 13.7887 119.549 13.7887C119.748 13.7887 119.881 13.8847 119.881 14.0768V15.2932C119.881 15.5813 119.814 15.7094 119.483 15.7734C118.255 15.9975 117.492 16.0935 115.767 16.0935C113.843 16.0935 111.157 15.1011 111.157 11.4838V10.1073C111.157 7.22625 112.815 5.43359 115.734 5.43359C118.686 5.43359 120.279 7.3543 120.279 10.1073V11.1317C120.246 11.4198 120.146 11.5798 119.881 11.5798ZM117.725 9.78719C117.725 8.34666 116.895 7.51436 115.734 7.51436C114.54 7.51436 113.678 8.31465 113.678 9.78719V9.85121H117.725V9.78719Z" fill="white"/>
    <path d="M124.956 16.0613C124.226 16.0613 122.601 15.9652 121.539 15.6771C121.307 15.6131 121.174 15.4851 121.174 15.261V14.1406C121.174 13.9805 121.307 13.8525 121.506 13.8525C121.539 13.8525 121.539 13.8525 121.572 13.8525C122.501 13.9485 124.193 14.0445 124.79 14.0445C125.984 14.0445 126.15 13.6604 126.15 13.1482C126.15 12.7961 125.918 12.572 125.321 12.2199L122.7 10.6833C121.771 10.1391 121.108 9.21076 121.108 8.15438C121.108 6.2977 122.302 5.40137 124.724 5.40137C126.283 5.40137 127.145 5.56143 128.107 5.78551C128.339 5.84953 128.439 5.97758 128.439 6.20166V7.25805C128.439 7.48213 128.306 7.61018 128.107 7.61018C128.074 7.61018 128.074 7.61018 128.041 7.61018C127.51 7.54615 125.984 7.38609 124.889 7.38609C123.961 7.38609 123.563 7.57816 123.563 8.15438C123.563 8.44248 123.861 8.63455 124.326 8.92266L126.813 10.3952C128.406 11.3235 128.638 12.2519 128.638 13.1802C128.704 14.8128 127.444 16.0613 124.956 16.0613Z" fill="white"/>
    <path d="M133.316 16.0613C132.586 16.0613 130.96 15.9652 129.899 15.6771C129.667 15.6131 129.534 15.4851 129.534 15.261V14.1406C129.534 13.9805 129.667 13.8525 129.866 13.8525C129.899 13.8525 129.899 13.8525 129.932 13.8525C130.861 13.9485 132.553 14.0445 133.15 14.0445C134.344 14.0445 134.51 13.6604 134.51 13.1482C134.51 12.7961 134.277 12.572 133.68 12.2199L131.06 10.6833C130.131 10.1391 129.468 9.21076 129.468 8.15438C129.468 6.2977 130.662 5.40137 133.083 5.40137C134.642 5.40137 135.505 5.56143 136.467 5.78551C136.699 5.84953 136.798 5.97758 136.798 6.20166V7.25805C136.798 7.48213 136.666 7.61018 136.467 7.61018C136.434 7.61018 136.434 7.61018 136.4 7.61018C135.87 7.54615 134.344 7.38609 133.249 7.38609C132.32 7.38609 131.922 7.57816 131.922 8.15438C131.922 8.44248 132.221 8.63455 132.685 8.92266L135.173 10.3952C136.765 11.3235 136.998 12.2519 136.998 13.1802C137.064 14.8128 135.837 16.0613 133.316 16.0613Z" fill="white"/>
    <path d="M132.95 14.5565C133.016 14.4605 132.851 14.6526 132.95 14.5565V14.5565Z" fill="white"/>
    <path fill-rule="evenodd" clip-rule="evenodd" d="M33.6025 14.5248C34.1664 14.3007 34.7303 14.1086 35.3274 13.8846C33.4034 17.5979 27.499 19.2305 22.9213 16.9577C20.8647 15.9333 19.0071 14.2687 17.3154 12.6041C15.6237 10.9715 14.2305 9.01877 12.7046 7.19411C8.85672 2.61643 5.67228 1.59205 0 3.12862C1.02831 0.951819 4.44495 -0.360662 7.7289 0.0875026C11.6431 0.59969 14.2968 3.00057 16.7846 5.68955C19.372 8.50659 21.8598 11.4517 24.7457 13.9486C27.5985 16.4135 31.0814 16.3495 33.702 14.4608L33.6025 14.5248Z" fill="white"/>
    <path d="M23.1872 11.4838C24.6467 10.1713 25.8409 9.01885 27.1346 7.93045C30.8498 4.7933 34.2664 5.27348 36.9864 9.53103C36.1903 3.19271 31.0488 0.823848 25.9072 4.15307C24.315 5.20945 22.8887 6.52193 21.3296 7.77039C20.4008 7.16217 19.472 6.52193 18.5432 5.91371C18.4769 6.00975 18.3774 6.13779 18.311 6.23383C18.5432 6.52193 18.8086 6.77803 19.0408 7.06613C20.3677 8.53867 21.7277 10.0432 23.1872 11.4838Z" fill="white"/>
    <path d="M15.8569 12.1553C10.7153 16.573 6.76794 9.94653 6.76794 9.94653C8.75822 18.3016 14.0656 17.5013 17.6813 15.7086C18.6432 16.1568 20.0364 16.637 20.9321 17.0531C20.9984 16.9571 21.0979 16.8611 21.1643 16.765C19.572 15.7407 18.1125 14.3962 16.7857 13.1157C16.4539 12.7956 16.1554 12.4755 15.8569 12.1553Z" fill="white"/>
</svg>
